<svg width="110" height="110" viewBox="0 0 110 110" fill="none" xmlns="http://www.w3.org/2000/svg">
<path d="M68.9997 73.7143C69.0675 73.7143 69.1341 73.6963 69.1925 73.6619C69.2509 73.6275 69.299 73.5782 69.3319 73.5189C69.3648 73.4597 69.3812 73.3927 69.3794 73.3249C69.3777 73.2572 69.3578 73.1912 69.3219 73.1337L58.0079 55.0278L69.0309 44.0048C69.084 43.9517 69.1201 43.884 69.1347 43.8104C69.1493 43.7368 69.1417 43.6605 69.113 43.5912C69.0842 43.5219 69.0356 43.4627 68.9732 43.421C68.9108 43.3793 68.8374 43.3571 68.7624 43.3571H58.5898C58.4892 43.3572 58.3927 43.3973 58.3216 43.4684L47.9378 53.851C47.8847 53.904 47.8171 53.9401 47.7436 53.9547C47.67 53.9693 47.5938 53.9618 47.5245 53.9331C47.4552 53.9044 47.3959 53.8558 47.3542 53.7935C47.3125 53.7312 47.2902 53.6579 47.2902 53.5829V37.6652C47.2902 37.5645 47.2502 37.468 47.179 37.3968C47.1079 37.3257 47.0114 37.2857 46.9107 37.2857H39.7009C39.6003 37.2857 39.5037 37.3257 39.4326 37.3968C39.3614 37.468 39.3214 37.5645 39.3214 37.6652V73.3188C39.3214 73.4194 39.3614 73.516 39.4326 73.5871C39.5037 73.6583 39.6003 73.6983 39.7009 73.6983H46.9107C47.0114 73.6983 47.1079 73.6583 47.179 73.5871C47.2502 73.516 47.2902 73.4194 47.2902 73.3188V65.9011C47.2902 65.8006 47.33 65.7041 47.4011 65.633L51.8977 61.1363C51.9381 61.0959 51.9871 61.0652 52.041 61.0463C52.0949 61.0275 52.1524 61.0211 52.2091 61.0276C52.2659 61.0341 52.3204 61.0533 52.3687 61.0838C52.417 61.1143 52.4578 61.1553 52.488 61.2038L60.1941 73.5359C60.2282 73.5905 60.2756 73.6355 60.3319 73.6667C60.3881 73.6979 60.4514 73.7143 60.5158 73.7143H68.9997Z" fill="#2B8FFF"/>
<path d="M54.5 13C31.028 13 12 32.028 12 55.5V97.6205C12 97.7212 12.04 97.8177 12.1111 97.8889C12.1823 97.96 12.2788 98 12.3795 98H54.5C77.972 98 97 78.972 97 55.5C97 32.0466 77.9534 13 54.5 13ZM54.5 90.0312H20.3482C20.2476 90.0312 20.1511 89.9913 20.0799 89.9201C20.0087 89.8489 19.9687 89.7524 19.9687 89.6518V55.6488C19.9687 36.6174 35.5399 20.9308 54.5708 20.9687C73.6094 21.0071 89.0312 36.4526 89.0312 55.5C89.0312 74.571 73.571 90.0312 54.5 90.0312Z" fill="#2B8FFF"/>
</svg>
